<svg xmlns:dc="http://purl.org/dc/elements/1.1/" xmlns:cc="http://creativecommons.org/ns#" xmlns:rdf="http://www.w3.org/1999/02/22-rdf-syntax-ns#" xmlns:svg="http://www.w3.org/2000/svg" xmlns="http://www.w3.org/2000/svg" xmlns:xlink="http://www.w3.org/1999/xlink" id="svg192093" viewBox="0 0 1024 768" height="768px" width="1024px" version="1.1">
  <metadata id="metadata192099">
    <rdf:rdf>
      <cc:work rdf:about="">
        <dc:format>image/svg+xml</dc:format>
        <dc:type rdf:resource="http://purl.org/dc/dcmitype/StillImage"></dc:type>
      </cc:work>
    </rdf:rdf>
  </metadata>
  <defs id="defs192097"></defs>
  <linearGradient spreadMethod="pad" y2="30%" x2="-10%" y1="120%" x1="30%" id="3d_gradient2-logo-320d9e16-e091-41b2-852e-5947ef895c6e">
    <stop id="stop192074" stop-opacity="1" stop-color="#ffffff" offset="0%"></stop>
    <stop id="stop192076" stop-opacity="1" stop-color="#000000" offset="100%"></stop>
  </linearGradient>
  <linearGradient gradientTransform="rotate(-30)" spreadMethod="pad" y2="30%" x2="-10%" y1="120%" x1="30%" id="3d_gradient3-logo-320d9e16-e091-41b2-852e-5947ef895c6e">
    <stop id="stop192079" stop-opacity="1" stop-color="#ffffff" offset="0%"></stop>
    <stop id="stop192081" stop-opacity="1" stop-color="#cccccc" offset="50%"></stop>
    <stop id="stop192083" stop-opacity="1" stop-color="#000000" offset="100%"></stop>
  </linearGradient>
  <g id="logo-group">
    <image xlink:href="" id="container" x="272" y="144" width="480" height="480" style="display: none;" transform="translate(0 0)"></image>
    <g id="logo-center" transform="translate(145.9072502222221 0)">
      <image xlink:href="" id="icon_container" x="0" y="0" style="display: none;"></image>
      <g id="slogan" style="font-style:normal;font-weight:normal;font-size:32px;line-height:1;font-family:'Brandmark Stencil 1';font-variant-ligatures:none;text-align:center;text-anchor:middle" transform="translate(0 0)"></g>
      <g id="title" style="font-style:normal;font-weight:normal;font-size:72px;line-height:1;font-family:'Brandmark Stencil 1';font-variant-ligatures:normal;text-align:center;text-anchor:middle" transform="translate(0 0)">
        <path id="path192102" style="font-style:normal;font-weight:normal;font-size:72px;line-height:1;font-family:'Brandmark Stencil 1';font-variant-ligatures:normal;text-align:center;text-anchor:middle" d="m 350.549,-8.928 c -4.248,4.176 -9.864,6.552 -15.84,6.552 -12.384,0 -22.392,-10.08 -22.392,-22.392 0,-12.384 10.008,-22.392 22.392,-22.392 5.976,0 11.592,2.304 15.84,6.552 0.432,0.432 1.224,0.432 1.728,0 0.432,-0.504 0.432,-1.296 0,-1.728 -4.752,-4.68 -10.944,-7.272 -17.568,-7.272 -13.68,0 -24.84,11.088 -24.84,24.84 0,13.68 11.16,24.768 24.84,24.768 6.624,0 12.816,-2.52 17.568,-7.272 0.432,-0.432 0.432,-1.224 0,-1.656 -0.504,-0.504 -1.296,-0.504 -1.728,0 z" stroke-width="0" stroke-linejoin="miter" stroke-miterlimit="2" fill="#1c1c1c" stroke="#1c1c1c" transform="translate(0 321.2931693333333) translate(50 22.45273800000001) scale(1.5555555555555556) translate(-309.869 49.608)"></path>
        <path id="path192104" style="font-style:normal;font-weight:normal;font-size:72px;line-height:1;font-family:'Brandmark Stencil 1';font-variant-ligatures:normal;text-align:center;text-anchor:middle" d="m 371.564,-49.608 c -0.648,0 -1.224,0.504 -1.224,1.224 v 47.232 c 0,0.648 0.576,1.152 1.224,1.152 0.648,0 1.224,-0.504 1.224,-1.152 v -47.232 c 0,-0.72 -0.576,-1.224 -1.224,-1.224 z m 4.968,48.456 c 0,0.648 0.576,1.152 1.224,1.152 h 18.288 c 0.648,0 1.224,-0.504 1.224,-1.152 0,-0.72 -0.576,-1.224 -1.224,-1.224 h -18.288 c -0.648,0 -1.224,0.504 -1.224,1.224 z" stroke-width="0" stroke-linejoin="miter" stroke-miterlimit="2" fill="#1c1c1c" stroke="#1c1c1c" transform="translate(0 321.2931693333333) translate(144.06599999999995 22.45273800000001) scale(1.5555555555555556) translate(-370.34 49.608)"></path>
        <path id="path192106" style="font-style:normal;font-weight:normal;font-size:72px;line-height:1;font-family:'Brandmark Stencil 1';font-variant-ligatures:normal;text-align:center;text-anchor:middle" d="m 412.6265,-49.608 c -0.648,0 -1.224,0.504 -1.224,1.224 v 47.232 c 0,0.648 0.576,1.152 1.224,1.152 0.648,0 1.224,-0.504 1.224,-1.152 v -47.232 c 0,-0.72 -0.576,-1.224 -1.224,-1.224 z" stroke-width="0" stroke-linejoin="miter" stroke-miterlimit="2" fill="#1c1c1c" stroke="#1c1c1c" transform="translate(0 321.2931693333333) translate(207.94099999999995 22.45273800000001) scale(1.5555555555555556) translate(-411.4025 49.608)"></path>
        <path id="path192108" style="font-style:normal;font-weight:normal;font-size:72px;line-height:1;font-family:'Brandmark Stencil 1';font-variant-ligatures:normal;text-align:center;text-anchor:middle" d="m 437.14362,-47.16 h 27.648 c 0.648,0 1.224,-0.576 1.224,-1.224 0,-0.72 -0.576,-1.224 -1.224,-1.224 h -27.648 c -0.64799,0 -1.224,0.504 -1.224,1.224 0,0.648 0.57601,1.224 1.224,1.224 z m -1.224,46.008 c 0,0.648 0.57601,1.152 1.224,1.152 h 27.648 c 0.648,0 1.224,-0.504 1.224,-1.152 0,-0.72 -0.576,-1.224 -1.224,-1.224 h -27.648 c -0.64799,0 -1.224,0.504 -1.224,1.224 z m 0,-6.264 c 0,0.72 0.57601,1.224 1.224,1.224 0.648,0 1.224,-0.504 1.224,-1.224 v -16.92 h 25.92 c 0.64801,0 1.224,-0.576 1.224,-1.224 0,-0.648 -0.57599,-1.224 -1.224,-1.224 h -25.92 v -15.408 c 0,-0.648 -0.576,-1.224 -1.224,-1.224 -0.64799,0 -1.224,0.576 -1.224,1.224 z" stroke-width="0" stroke-linejoin="miter" stroke-miterlimit="2" fill="#1c1c1c" stroke="#1c1c1c" transform="translate(0 321.2931693333333) translate(246.07874222222225 22.45273800000001) scale(1.5555555555555556) translate(-435.91962 49.608)"></path>
        <path id="path192110" style="font-style:normal;font-weight:normal;font-size:72px;line-height:1;font-family:'Brandmark Stencil 1';font-variant-ligatures:normal;text-align:center;text-anchor:middle" d="m 572.74775,-49.608 h -52.776 c -0.648,0 -1.152,0.504 -1.152,1.224 v 43.56 l -32.976,-44.28 c -0.288,-0.432 -0.864,-0.648 -1.296,-0.432 -0.504,0.144 -0.864,0.576 -0.864,1.152 v 47.232 c 0,0.648 0.576,1.152 1.224,1.152 0.648,0 1.224,-0.504 1.224,-1.152 v -43.56 l 32.904,44.28 c 0.216,0.288 0.576,0.432 0.936,0.432 h 0.432 c 0.504,-0.216 0.792,-0.648 0.792,-1.152 V -47.16 h 51.552 c 0.72,0 1.224,-0.576 1.224,-1.224 0,-0.72 -0.504,-1.224 -1.224,-1.224 z m -19.152,48.456 c 0,0.648 0.576,1.152 1.224,1.152 0.648,0 1.224,-0.504 1.224,-1.152 v -40.824 c 0,-0.648 -0.576,-1.152 -1.224,-1.152 -0.648,0 -1.224,0.504 -1.224,1.152 z" stroke-width="0" stroke-linejoin="miter" stroke-miterlimit="2" fill="#1c1c1c" stroke="#1c1c1c" transform="translate(0 321.2931693333333) translate(320.3785 22.432923333333335) scale(1.5555555555555556) translate(-483.68375 49.620738)"></path>
        <path id="path192112" style="font-style:normal;font-weight:normal;font-size:72px;line-height:1;font-family:'Brandmark Stencil 1';font-variant-ligatures:normal;text-align:center;text-anchor:middle" d="m 589.95462,-49.608 c -0.64799,0 -1.22399,0.504 -1.22399,1.224 v 47.232 c 0,0.648 0.576,1.152 1.22399,1.152 0.648,0 1.224,-0.504 1.224,-1.152 v -47.232 c 0,-0.72 -0.576,-1.224 -1.224,-1.224 z" stroke-width="0" stroke-linejoin="miter" stroke-miterlimit="2" fill="#1c1c1c" stroke="#1c1c1c" transform="translate(0 321.2931693333333) translate(483.78475777777794 22.45273800000001) scale(1.5555555555555556) translate(-588.73063 49.608)"></path>
        <path id="path192114" style="font-style:normal;font-weight:normal;font-size:72px;line-height:1;font-family:'Brandmark Stencil 1';font-variant-ligatures:normal;text-align:center;text-anchor:middle" d="m 650.7665,-5.184 c 5.904,-4.536 9.648,-11.592 9.648,-19.584 0,-13.68 -11.088,-24.84 -24.768,-24.84 -13.68,0 -24.84,11.16 -24.84,24.84 0,13.68 11.16,24.768 24.84,24.768 5.544,0 10.656,-1.8 14.76,-4.896 0.072,0 0.216,-0.072 0.288,-0.144 0,-0.072 0.072,-0.072 0.072,-0.144 z m -37.512,-19.584 c 0,-12.384 10.008,-22.392 22.392,-22.392 12.312,0 22.392,10.008 22.392,22.392 0,6.912 -3.168,13.104 -8.136,17.208 l -7.992,-7.992 c -0.504,-0.504 -1.224,-0.504 -1.728,0 -0.504,0.432 -0.504,1.224 0,1.728 l 7.776,7.776 c -3.528,2.304 -7.776,3.672 -12.312,3.672 -12.384,0 -22.392,-10.08 -22.392,-22.392 z m 40.176,24.192 2.448,2.376 c 0.216,0.288 0.504,0.36 0.864,0.36 0.288,0 0.576,-0.072 0.864,-0.36 0.432,-0.432 0.432,-1.224 0,-1.656 l -2.448,-2.448 c -0.504,-0.504 -1.224,-0.504 -1.728,0 -0.504,0.432 -0.504,1.224 0,1.728 z" stroke-width="0" stroke-linejoin="miter" stroke-miterlimit="2" fill="#1c1c1c" stroke="#1c1c1c" transform="translate(0 321.2931693333333) translate(518.1250000000002 22.45273800000001) scale(1.5555555555555556) translate(-610.8065 49.608)"></path>
        <path id="path192116" style="font-style:normal;font-weight:normal;font-size:72px;line-height:1;font-family:'Brandmark Stencil 1';font-variant-ligatures:normal;text-align:center;text-anchor:middle" d="m 715.99625,-1.944 -37.44,-47.232 c -0.432,-0.504 -1.152,-0.576 -1.656,-0.216 -0.576,0.432 -0.648,1.224 -0.216,1.728 l 37.44,47.232 c 0.216,0.288 0.576,0.432 0.936,0.432 0.288,0 0.504,-0.072 0.72,-0.216 0.576,-0.432 0.648,-1.224 0.216,-1.728 z m -40.968,0 c -0.432,0.504 -0.36,1.296 0.144,1.728 0.216,0.144 0.504,0.216 0.792,0.216 0.36,0 0.72,-0.144 0.936,-0.432 l 16.056,-20.232 c 0.432,-0.504 0.288,-1.296 -0.216,-1.728 -0.504,-0.432 -1.296,-0.288 -1.728,0.216 z m 23.112,-29.16 c -0.432,0.504 -0.36,1.368 0.216,1.656 0.288,0.144 0.432,0.288 0.72,0.288 0.36,0 0.72,-0.144 0.936,-0.432 l 14.328,-18.072 c 0.432,-0.504 0.288,-1.296 -0.216,-1.728 -0.504,-0.36 -1.296,-0.288 -1.656,0.216 z" stroke-width="0" stroke-linejoin="miter" stroke-miterlimit="2" fill="#1c1c1c" stroke="#1c1c1c" transform="translate(0 321.2931693333333) translate(617.5842511111114 22.438738) scale(1.5555555555555556) translate(-674.74459 49.617)"></path>
      </g>
      <image xlink:href="" id="icon" x="0" y="0" style="display: none;"></image>
    </g>
  </g>
</svg>